<?xml version="1.0" standalone="no"?>
<!DOCTYPE svg PUBLIC "-//W3C//DTD SVG 1.1//EN" "http://www.w3.org/Graphics/SVG/1.1/DTD/svg11.dtd" >
<svg xmlns="http://www.w3.org/2000/svg">
<metadata>Generated by IcoMoon</metadata>
<defs>
<font id="banking-app" horiz-adv-x="1024">
<font-face units-per-em="1024" ascent="960" descent="-64" />
<missing-glyph horiz-adv-x="1024" />
<glyph unicode="&#x20;" horiz-adv-x="512" d="" />
<glyph unicode="&#xe56b;" glyph-name="zoom_out_map" d="M896 298.667v-256h-256l98 98-124 122 62 62 122-124zM384 42.667h-256v256l98-98 122 124 62-62-124-122zM128 554.667v256h256l-98-98 124-122-62-62-122 124zM640 810.667h256v-256l-98 98-122-124-62 62 124 122z" />
<glyph unicode="&#xe900;" glyph-name="takvim" d="M902.321 79.802h-780.642v733.235h780.642c0 0 0-733.235 0-733.235zM902.321 917.333h-780.642c-56.889 0-105.877-48.988-105.877-105.877v-728.494c0-56.889 48.988-105.877 105.877-105.877h780.642c56.889 0 105.877 48.988 105.877 105.877v730.074c0 56.889-48.988 104.296-105.877 104.296zM227.555 1001.087h94.815v-252.84h-94.815v252.84zM701.63 1001.087h94.815v-252.84h-94.815v252.84zM393.481 534.914c0-48.002-38.912-86.914-86.914-86.914s-86.914 38.912-86.914 86.914c0 48.002 38.912 86.914 86.914 86.914s86.914-38.912 86.914-86.914zM598.914 534.914c0-48.002-38.912-86.914-86.914-86.914s-86.914 38.912-86.914 86.914c0 48.002 38.912 86.914 86.914 86.914s86.914-38.912 86.914-86.914zM804.346 534.914c0-48.002-38.912-86.914-86.914-86.914s-86.914 38.912-86.914 86.914c0 48.002 38.912 86.914 86.914 86.914s86.914-38.912 86.914-86.914zM393.481 329.481c0-48.002-38.912-86.914-86.914-86.914s-86.914 38.912-86.914 86.914c0 48.002 38.912 86.914 86.914 86.914s86.914-38.912 86.914-86.914zM598.914 329.481c0-48.002-38.912-86.914-86.914-86.914s-86.914 38.912-86.914 86.914c0 48.002 38.912 86.914 86.914 86.914s86.914-38.912 86.914-86.914zM804.346 329.481c0-48.002-38.912-86.914-86.914-86.914s-86.914 38.912-86.914 86.914c0 48.002 38.912 86.914 86.914 86.914s86.914-38.912 86.914-86.914z" />
<glyph unicode="&#xe901;" glyph-name="cloud-download" d="M256.13 653.987c31.201 0 59.256-6.228 87.376-15.601 43.721 68.63 118.643 115.496 206.085 115.496 118.577 0 215.393-84.295 237.22-193.499 9.373 0 18.747 3.081 31.267 3.081 115.496 0 209.1-93.604 209.1-209.1 0-115.562-93.669-209.1-209.1-209.1v0 0h-558.868c-140.471 0-255.967 115.562-255.967 255.967-3.147 137.324 109.27 252.756 252.887 252.756v0zM380.935 591.585c0 0 62.402-68.63 65.549-221.619h-81.15l149.844-168.591 149.91 168.591h-81.28c-3.081 49.949-21.828 187.339-202.874 221.619v0z" />
<glyph unicode="&#xe902;" glyph-name="email" d="M737.994 25.674c-82.199-41.064-164.396-58.251-263.641-58.251-243.145 0-445.226 178.134-445.226 458.961 0 304.776 212.365 565.039 537.712 565.039 256.881 0 428.111-181.514 428.111-424.66 0-222.65-123.261-349.291-263.711-349.291-58.251 0-112.976 40.991-109.526 130.166h-6.901c-51.42-85.579-119.881-130.166-208.911-130.166-85.651 0-161.016 68.461-161.016 184.894 0 181.514 143.901 349.364 349.364 349.364 65.081 0 119.881-13.661 157.566-30.851l-51.42-267.091c-20.496-112.976-3.38-164.396 44.515-164.396 75.366 0 160.946 99.241 160.946 270.545 0 212.365-126.714 366.48-356.125 366.48-239.766 0-441.846-191.796-441.846-489.741 0-246.596 160.946-397.259 380.144-397.259 85.579 0 160.946 17.116 222.65 51.42l27.326-65.155zM655.866 662.696c-13.661 3.451-41.064 10.281-75.366 10.281-130.094 0-232.861-123.334-232.861-267.165 0-65.011 30.851-113.051 95.935-113.051 85.579 0 164.396 109.596 181.514 202.154l30.779 167.776z" />
<glyph unicode="&#xe903;" glyph-name="file-audio" d="M262.906 69.29l-37.474 313.974c-3.368 23.788-27.298 40.913-54.598 37.474l-27.228-3.368c-3.44 0-10.246 0-13.685-3.51l47.791-399.167c3.44 0 10.246 0 13.613 0l27.298 3.44c27.298 3.368 47.719 23.86 44.281 51.159zM894.15 413.858c-3.368 0-6.807 3.51-13.613 3.51l-27.228 3.368c-27.37 3.44-51.231-13.685-54.598-37.474l-37.616-313.974c-3.44-23.86 17.053-47.791 44.281-51.159l27.37-3.44c3.44 0 10.246 0 13.613 0l47.791 399.167zM952.187 424.176v0c0 3.368 0 3.368 0 6.807 13.541 218.392-133.056 412.852-337.835 464.083-34.178 10.246-68.212 13.613-102.389 13.613-34.106 0-68.212-6.807-98.95-13.613-208.075-47.791-354.816-242.251-341.13-464.083 0-3.44 0-3.44 0-6.807v0c0 0-85.265-61.404-68.284-204.707s129.688-221.832 129.688-221.832c6.807-3.51 13.613-6.878 17.053-6.878 6.807 0 13.613 6.878 10.246 16.981l-47.791 399.167c0 6.878-3.368 17.125-3.368 23.931-6.878 126.392 40.913 242.323 126.248 324.22v0c13.613-17.053 37.474-17.053 51.159-3.368 0 0 98.95 81.897 225.198 81.897 68.212 0 146.741-27.298 228.566-85.265 6.878-3.44 13.613-6.807 20.493-6.807 10.246 0 20.493 3.368 30.738 13.613 85.265-81.897 133.056-197.9 126.248-324.149 0-6.807 0-17.053-3.44-23.931v0l-47.719-399.167c0-13.613 3.44-16.981 10.246-16.981 3.368 0 10.246 3.368 16.981 6.878 0 0 112.635 78.457 129.76 221.76 13.541 143.159-71.722 204.635-71.722 204.635z" />
<glyph unicode="&#xe904;" glyph-name="file-pdf" d="M949.4 689.83l-49.807 46.222-231.115 216.852c-7.168 3.585-14.263 7.095-21.357 7.095h-405.328c-42.639 0-74.674-31.96-74.674-74.674v-426.685h60.485v426.758c0 7.168 7.095 14.263 14.188 14.263h376.951v-231.19c0-17.772 14.188-31.96 32.035-31.96h256.055v-625.838c0-7.168-7.168-14.188-14.188-14.188h-647.344c-7.095 0-14.188 7.095-14.188 14.188v99.539h-60.485v-99.539c0-42.713 32.035-74.674 74.674-74.674h640.176c42.564 0 74.599 31.96 74.599 74.674v654.215c0 10.678-3.51 17.772-10.678 24.94zM216.928 334.234c-3.585 0-7.095 0-17.772 0h-32.035v-42.713h32.035c10.678 0 17.772 3.51 24.867 7.168 3.585 3.51 7.095 10.678 7.095 17.697 0 3.658 0 10.753-3.51 14.188-3.585 0-7.095 3.658-10.678 3.658zM362.69 334.234c-3.51 3.51-14.188 3.51-24.867 3.51h-24.94v-103.124h28.45c10.678 0 17.772 0 21.357 3.585 3.585 0 7.095 3.51 10.678 7.168 3.585 3.51 7.095 10.678 10.678 17.697 3.51 7.168 3.51 17.772 3.51 24.94 0 14.113-3.51 24.867-7.095 32.035-3.51 7.095-10.678 10.529-17.772 14.188zM622.256 188.398v188.401c0 21.357-17.772 39.203-39.129 39.203h-483.585c-21.357 0-39.054-17.847-39.054-39.203v-188.401c0-21.357 17.697-39.054 39.054-39.054h483.585c24.94 3.51 39.129 21.357 39.129 39.054zM245.303 280.844c-7.095-10.678-24.867-14.188-46.222-14.188h-31.96v-60.485h-28.45v152.931h56.902c10.678 0 17.772 0 21.357 0 7.095 0 14.188-3.585 17.772-7.168 3.51-3.585 10.604-7.095 14.188-14.188 3.51-7.168 3.51-14.188 3.51-21.357 3.585-14.188 0-24.867-7.095-35.545zM408.839 255.977c-3.51-7.168-7.095-17.772-10.604-21.357-3.585-7.168-10.678-10.678-14.188-14.188-3.585-3.51-10.678-7.168-17.772-7.168s-14.263-3.51-24.867-3.51h-56.975v149.346h53.317c10.678 0 21.357 0 24.867-3.585 7.168-3.51 17.847-7.095 21.431-10.604 7.095-7.168 14.188-14.263 17.697-24.867 3.585-10.753 7.095-21.357 7.095-35.62 3.585-10.678 3.585-21.357 0-28.45zM551.167 337.744h-78.257v-35.62h67.579v-24.792h-67.579v-63.995h-28.45v145.837h106.709v-21.431z" />
<glyph unicode="&#xe905;" glyph-name="file-spreadsheet" d="M787.137 500.91h63.388c10.663 0 21.179 10.589 21.179 21.179v59.908c0 10.589-10.589 21.179-21.179 21.179h-63.388c-10.663 0-21.179-10.589-21.179-21.179v-59.908c0-14.144 10.516-21.179 21.179-21.179zM787.137 292.826h63.388c10.663 0 21.179 10.589 21.179 21.179v59.981c0 10.589-10.589 21.179-21.179 21.179h-63.388c-10.663 0-21.179-10.663-21.179-21.179v-59.981c0-10.589 10.516-21.179 21.179-21.179zM973.967 857.095h-409.057v81.085c0 14.069-13.995 24.66-24.66 21.179l-521.912-148.101c-10.589-3.555-14.069-10.589-14.069-21.179v-684.083c0-10.663 7.035-17.624 14.069-21.179l521.912-148.101c14.069-3.555 24.66 7.108 24.66 21.179v98.709h409.057c28.213 0 52.947 21.179 52.947 52.872v698.226c-3.555 28.14-24.732 49.392-52.947 49.392zM448.576 328.149c17.624-21.105 14.069-52.947-7.035-70.571-10.589-7.035-42.284-24.585-70.571 7.108l-88.121 105.819-88.121-105.819c-28.213-31.693-63.461-14.069-70.571-7.108-21.179 17.624-24.66 49.466-7.035 70.571l102.264 119.888-102.339 119.888c-17.624 21.105-14.069 52.872 7.108 70.497s52.872 14.069 70.571-7.035l88.121-105.819 88.121 105.819c17.624 21.179 49.392 24.66 70.571 7.035s24.66-49.392 7.035-70.497l-102.264-119.888 102.264-119.888zM921.095 158.868h-356.259v133.958h81.16c10.589 0 21.179 10.589 21.179 21.179v59.981c0 10.589-10.663 21.179-21.179 21.179h-81.16v105.745h81.16c10.589 0 21.179 10.589 21.179 21.179v59.908c0 10.589-10.663 21.179-21.179 21.179h-81.16v155.137h359.665v-599.442h-3.406z" />
<glyph unicode="&#xe906;" glyph-name="file-video" d="M359.128 668.441v-440.884l192.033 110.203 188.449 110.276-188.449 110.203zM512.037 960.001c-280.882 0-512.037-227.572-512.037-511.963s227.572-511.963 512.037-511.963c284.539 0 511.963 227.572 511.963 511.963s-231.007 511.963-511.963 511.963zM512.037-24.877c-259.603 0-472.84 213.312-472.84 472.915s213.312 472.84 472.84 472.84 472.915-213.312 472.915-472.84-213.387-472.915-472.915-472.915z" />
<glyph unicode="&#xe907;" glyph-name="folder-add" d="M920.013 756.011h-407.978l-104.057 99.932h-303.921c-54.056 0-99.862-45.805-99.862-99.932v-611.897c0-54.056 45.735-104.057 103.987-104.057h815.956c54.056 0 104.057 45.735 104.057 104.057v512.035c-4.125 49.931-54.126 99.862-108.183 99.862zM720.149 364.677h-166.506v-166.506h-41.678v166.506h-166.436v41.678h166.506v166.506h41.678v-166.506h166.506v-41.678z" />
<glyph unicode="&#xe908;" glyph-name="folder-remove" d="M920.013 756.081h-407.908l-104.127 99.932h-303.921c-54.126 0-99.932-45.805-99.932-99.932v-611.967c0-54.056 45.735-104.057 104.057-104.057h815.886c54.197 0 104.057 45.805 104.057 104.057v512.035c-4.057 50.001-54.056 99.932-108.114 99.932zM720.149 364.747h-374.691v41.608h374.691v-41.608z" />
<glyph unicode="&#xe909;" glyph-name="folder" d="M923.047 756.339h-411.167l-100.713 100.713h-310.454c-54.479 0-100.713-46.163-100.713-100.713v-616.75c0-54.479 46.163-100.642 100.713-100.642h822.334c54.479 0 100.713 46.093 100.713 100.642v516.037c4.158 50.392-46.233 100.713-100.713 100.713zM923.047 135.431h-822.334v516.037h822.334v-516.037z" />
<glyph unicode="&#xe90a;" glyph-name="graph-bar" d="M348.996 180.715h-108.771v376.093h108.771v-376.093zM566.386 180.715h-108.695v539.212h108.695v-539.212zM779.36 180.715h-108.695v217.466h108.695v-217.466zM915.381 67.453h-806.61v756.678h806.534v-756.678zM915.381 932.903h-806.61c-58.914 0-108.695-49.932-108.695-108.771v-752.186c0-58.838 49.781-108.771 108.771-108.771h806.534c58.838 0 108.695 49.857 108.695 108.771v752.186c-0.076 58.838-49.857 108.771-108.695 108.771z" />
<glyph unicode="&#xe90b;" glyph-name="graph-line" d="M76.602 117.447l306.341 306.341 205.626-205.559 435.432 487.788-72.538 72.606-362.827-407.257-205.626 205.694-383.010-383.010 76.603-76.603z" />
<glyph unicode="&#xe90c;" glyph-name="heart-line" d="M743.861 844.090c-86.901 0-173.967-43.491-231.82-106.294-57.935 67.59-140.131 106.294-231.82 106.294-159.442 0-280.098-125.606-280.098-280.18 0-193.197 173.886-352.639 439.54-589.246l72.46-67.671 72.46 67.671c265.655 241.475 439.54 396.049 439.54 589.246-0.163 159.361-125.606 280.18-280.261 280.18zM516.827 47.042l-4.868-4.868-4.868 4.868c-241.557 222.164-405.706 367.083-405.706 516.787 0 101.426 77.246 178.754 178.672 178.754 77.246 0 154.574-48.36 183.54-120.738h96.639c28.887 72.46 101.426 120.738 183.54 120.738 101.426 0 178.672-77.328 178.672-178.754 0.082-149.624-159.199-294.542-405.624-516.787z" />
<glyph unicode="&#xe90d;" glyph-name="heart-solid" d="M743.843 844.059c-86.976 0-173.872-43.488-231.802-106.286-58.012 67.584-140.038 106.286-231.802 106.286-159.43 0-280.158-125.596-280.158-280.158 0-193.182 173.953-352.612 439.506-589.2l72.534-67.666 72.454 67.666c265.716 241.456 439.506 396.018 439.506 589.2-0.081 159.348-125.677 280.158-280.239 280.158z" />
<glyph unicode="&#xe90e;" glyph-name="list" d="M908.821 844.821v-797.87h-793.568v797.87h793.568zM972.824 959.927h-921.578c-29.888 0-51.247-21.286-51.247-51.175v-921.578c0-21.358 21.358-51.175 51.247-51.175h921.506c21.358 0 51.247 29.816 51.247 51.175v921.578c0 29.888-29.888 51.175-51.175 51.175zM456.561 733.869h341.31v-115.18h-341.31v115.18zM456.561 503.439h341.31v-115.18h-341.31v115.18zM456.561 277.309h341.31v-115.18h-341.31v115.18zM226.201 733.869h115.18v-115.18h-115.18v115.18zM226.201 503.439h115.18v-115.18h-115.18v115.18zM226.201 277.309h115.18v-115.18h-115.18v115.18z" />
<glyph unicode="&#xe90f;" glyph-name="media-pause" d="M568.118 795.119c0 91.205 59.657 164.813 129.693 164.813 70.173 0 129.83-73.609 129.83-164.813v-694.374c0-91.205-59.657-164.813-129.83-164.813-70.103 0-129.693 73.609-129.693 164.813v694.374zM192.924 795.119c0 91.205 59.588 164.813 129.761 164.813 70.103 0 129.693-73.609 129.693-164.813v-694.374c0-91.205-59.588-164.813-129.693-164.813-70.173 0-129.761 73.609-129.761 164.813v694.374z" />
<glyph unicode="&#xe910;" glyph-name="media-play" d="M140.384 865.683c0 88.82 59.19 121.696 134.819 69.068l552.538-391.404c72.382-52.63 72.382-138.134 0-190.763l-552.538-391.335c-72.382-52.698-134.819-19.754-134.819 69.068v835.367z" />
<glyph unicode="&#xe911;" glyph-name="media-stop" d="M1022.374 102.322c0-88.849-72.393-164.628-164.628-164.628h-691.424c-88.917 0-164.628 72.393-164.628 164.628v694.674c0 88.849 72.393 164.559 164.628 164.559h694.743c88.917 0 164.628-72.393 164.628-164.559v-694.743h-3.319z" />
<glyph unicode="&#xe912;" glyph-name="media" d="M102.474 755.215h-102.391v-716.742c0-58.568 43.823-102.474 102.391-102.474h716.742v102.474h-716.742v716.742zM921.607 960h-614.35c-58.568 0-102.391-43.823-102.391-102.391v-614.35c0-58.568 43.823-102.391 102.391-102.391h614.35c58.568 0 102.391 43.823 102.391 102.391v614.35c0 58.486-43.823 102.391-102.391 102.391zM512.041 321.24v463.219l307.174-229.193-307.174-234.027z" />
<glyph unicode="&#xe913;" glyph-name="mic" d="M658.713-64.029h-296.158c-22.084 0-41.495 19.353-41.495 41.495s19.353 41.495 41.495 41.495h296.158c22.084 0 41.495-19.353 41.495-41.495s-16.621-41.495-41.495-41.495zM512.029-64.029c-22.142 0-41.495 19.353-41.495 41.495v188.237c0 22.142 19.353 41.495 41.495 41.495s41.495-19.353 41.495-41.495v-188.237c0-22.142-19.353-41.495-41.495-41.495zM763.844 594.655c0 22.142 19.41 41.553 41.553 41.553s41.553-19.41 41.553-41.553v-116.231c0-185.389-149.474-334.921-334.921-334.921s-334.862 149.474-334.862 334.921v116.231c0 22.142 19.353 41.553 41.553 41.553 22.084 0 41.495-19.41 41.495-41.553v-116.231c0-138.374 113.442-251.873 251.815-251.873s251.815 113.499 251.815 251.873v116.231zM512.029 315.177c-91.299 0-166.037 74.736-166.037 166.037v312.721c0 91.358 74.736 166.037 166.037 166.037 91.358 0 166.037-74.736 166.037-166.037v-312.721c0-91.299-74.679-166.037-166.037-166.037z" />
<glyph unicode="&#xe914;" glyph-name="haber" d="M856.288 34.853h-730.845c-29.999 0-125.443 12.273-125.443 167.714v507.229h174.529v151.352h849.471v-684.488c0-1.363-4.091-34.087-24.544-70.903l-1.366-1.366c-34.085-47.722-80.445-69.539-141.804-69.539zM233.161 107.118h623.124c25.908 0 59.994 6.819 77.724 36.817 12.271 17.725 12.271 35.453 12.271 35.453v605.402h-695.393v-586.313c0-34.087-6.819-65.449-17.727-91.356zM76.353 633.439v-430.872c0-89.991 36.817-89.991 49.089-89.991 13.633 0 53.177 0 53.177 89.991v430.872h-102.267zM545.406 235.29h-196.346c-29.999 0-53.177 24.544-53.177 53.177v204.527c0 29.998 24.544 53.177 53.177 53.177h196.346c29.999 0 53.177-24.544 53.177-53.177v-204.527c0-28.633-23.181-53.177-53.177-53.177zM368.151 307.558h158.169v166.349h-158.169v-166.349zM867.198 473.906h-196.348c-21.815 0-38.178 16.364-38.178 38.178s16.364 38.178 38.178 38.178h196.348c21.815 0 38.178-16.364 38.178-38.178s-16.364-38.178-38.178-38.178zM868.561 513.448v0 0zM867.198 356.643h-196.348c-21.815 0-38.178 16.364-38.178 38.178s16.364 38.178 38.178 38.178h196.348c21.815 0 38.178-16.364 38.178-38.178s-16.364-38.178-38.178-38.178zM773.114 235.29h-106.355c-21.815 0-38.178 16.364-38.178 38.178s16.364 38.178 38.178 38.178h106.355c21.815 0 38.178-16.364 38.178-38.178s-16.364-38.178-38.178-38.178zM867.198 625.256h-537.227c-21.815 0-38.178 16.364-38.178 38.178s16.364 38.177 38.178 38.177h537.227c21.815 0 38.178-16.361 38.178-38.177s-16.364-38.178-38.178-38.178z" />
<glyph unicode="&#xe915;" glyph-name="phone-message" d="M965.958 175.625c-70.582 0-141.251 10.082-201.75 30.249-20.167 4.999-40.418 0-55.501-15.251l-126.083-126.083c-161.332 80.751-292.498 211.832-373.164 373.335l126.083 126.083c15.083 15.168 20.081 35.249 15.083 55.501-20.167 65.583-30.249 131.081-30.249 201.665 0 30.249-25.25 55.501-55.501 55.501h-206.749c-30.334 0.085-55.584-25.165-55.584-55.501 0-534.667 433.834-963.332 963.417-963.332 30.249 0 55.501 25.165 55.501 55.416v196.75c0.085 40.333-25.165 65.668-55.501 65.668zM512.043 881.707v-569.916l171.499 171.414h343.001v398.5h-514.5z" />
<glyph unicode="&#xe916;" glyph-name="phone" d="M968.946 174.682c-69.359 0-138.718 12.31-204.002 32.684-20.29 8.149-40.664 0-57.049-12.31l-126.493-126.408c-159.092 81.584-293.651 212.151-375.234 375.32l126.493 126.408c16.215 16.3 20.29 36.674 12.139 57.134-20.459 65.198-32.684 130.484-32.684 203.916 0 32.6-24.534 57.049-57.049 57.049h-199.926c-32.684 0-57.134-24.534-57.134-57.049 0-534.411 432.452-966.78 966.78-966.78 32.684 0 57.22 24.449 57.22 57.049v199.843c0 28.695-24.534 53.144-53.059 53.144z" />
<glyph unicode="&#xe917;" glyph-name="sound-off" d="M937.826 447.967l58.643 58.708c24.688 24.624 27.799 61.689 9.266 80.156-18.533 18.533-55.532 15.422-80.221-9.202l-58.643-58.708-58.643 58.643c-24.688 24.624-61.689 27.734-80.221 9.202-18.468-18.468-15.422-55.532 9.331-80.156l58.578-58.708-58.578-58.578c-24.753-24.624-27.799-58.643-9.331-80.156 18.533-18.533 55.532-15.422 80.221 9.202l58.643 58.643 58.578-58.643c24.688-24.624 61.689-27.734 80.221-9.202 18.533 18.468 15.422 55.532-9.266 80.156l-58.578 58.643zM518.189 836.761l-286.995-203.599h-178.909c-33.955 0-58.643-27.799-58.643-58.643v-249.929c0-33.89 27.799-58.578 58.643-58.578h178.974l286.995-203.662c58.643-40.175 104.974-15.487 104.974 55.468v666.522c3.046 67.845-46.397 92.533-105.040 52.423z" />
<glyph unicode="&#xe918;" glyph-name="sound-on" d="M518.359 787.236l-294.864-209.247h-183.882c-34.819 0-60.251-28.561-60.251-60.251v-256.782c0-34.819 28.561-60.251 60.251-60.251h183.882l294.864-209.181c60.251-41.277 107.786-15.912 107.786 56.989v684.797c3.196 69.771-47.535 95.137-107.786 53.926zM721.215 669.864c-12.649 0-25.365-12.649-25.365-25.299s12.649-25.365 25.365-25.365c126.827 0 231.484-104.59 231.484-231.417s-104.59-231.551-231.484-231.551c-12.649 0-25.365-12.582-25.365-25.299s12.649-25.365 25.365-25.365c155.388 0 282.148 126.76 282.148 282.148 0.067 155.321-126.76 282.148-282.148 282.148zM721.215 184.86c114.177 0 206.119 91.941 206.119 206.119 0 114.111-91.941 206.052-206.119 206.052-12.649 0-25.365-12.649-25.365-25.299 0-12.716 12.649-25.365 25.365-25.365 85.616 0 155.388-69.705 155.388-155.321s-69.771-155.455-155.388-155.455c-12.649 0-25.365-12.649-25.365-25.299 0.067-12.783 12.716-25.432 25.365-25.432zM721.215 311.62c-12.649 0-25.365-12.649-25.365-25.365s12.649-25.365 25.365-25.365c69.771 0 126.827 57.055 126.827 126.827 0 69.705-57.055 126.827-126.827 126.827-12.649 0-25.365-12.716-25.365-25.365s12.649-25.365 25.365-25.365c41.277 0 76.163-34.819 76.163-76.096 3.129-41.277-31.757-76.096-76.163-76.096z" />
<glyph unicode="&#xe919;" glyph-name="trash" d="M873.432 745.373h-722.802v-41.421h67.726v-703.957c0-33.831 30.164-63.996 64.059-63.996h459.229c33.895 0 64.059 30.164 64.059 63.996v703.957h67.726v41.421zM376.514 30.16h-41.421v606.065h41.421v-606.065zM534.607 30.16h-41.421v606.065h41.421v-606.065zM692.701 30.16h-41.357v606.065h41.357v-606.065zM218.422 786.793h587.22c11.32 0 22.575 11.32 22.575 22.575s-11.32 22.575-22.575 22.575h-139.312v64.059c0 33.895-30.101 63.996-63.996 63.996h-184.399c-33.831 0-63.996-30.101-63.996-63.996v-63.996h-135.581c-11.193-0.064-22.513-11.32-22.513-22.639s11.32-22.575 22.575-22.575zM395.295 896.004c0 11.32 11.32 22.575 22.575 22.575h184.463c11.32 0 22.575-11.256 22.575-22.575v-63.996h-229.614v63.996z" />
<glyph unicode="&#xe91a;" glyph-name="zoom-in" d="M9.62 527.029c0-214.523 172.176-386.637 386.7-386.637 73.427 0 143.944 19.688 200.407 56.402l279.469-279.469c36.714-36.714 93.115-36.714 129.89 0v0c36.651 36.714 36.651 93.176 0 129.829l-279.53 279.53c36.651 59.249 56.464 126.98 56.464 200.346 0 214.523-172.113 386.76-386.7 386.76s-386.7-172.238-386.7-386.76zM133.752 527.029c0 146.792 118.561 265.353 265.353 265.353 146.73 0 265.291-118.561 265.291-265.353s-118.561-265.291-265.291-265.291c-146.73 0-265.353 118.499-265.353 265.291zM562.798 580.708h-110.079v110.079c0 8.482-8.482 16.963-16.963 16.963h-76.213c-8.42 0-16.901-8.482-16.901-16.963v-110.079h-110.079c-8.482 0-16.901-8.482-16.901-16.963v-76.151c0-8.482 8.42-16.901 16.901-16.901h110.079v-110.141c0-8.42 8.482-16.901 16.901-16.901h76.213c8.482 0 16.963 8.543 16.963 16.901v110.141h110.079c8.482 0 16.901 8.42 16.901 16.901v76.151c0.062 8.482-5.572 16.963-16.901 16.963z" />
<glyph unicode="&#xe91b;" glyph-name="zoom-out" d="M10.326 527.662c0-215.468 174.134-386.628 386.565-386.628 73.744 0 141.662 20.697 200.657 56.082l280.351-280.288c35.385-35.385 94.441-35.385 129.888 0v0c35.385 35.385 35.385 94.38 0 129.826l-280.351 280.351c35.385 58.995 56.082 126.851 56.082 200.657 0 215.406-174.134 386.565-386.565 386.565s-386.628-174.072-386.628-386.565zM131.352 527.662c0 147.55 117.99 265.602 265.602 265.602 147.55 0 265.54-117.99 265.54-265.602 0-147.487-117.99-265.54-265.54-265.54-147.612 0.062-265.602 118.052-265.602 265.54zM213.958 501.139v50.195c0 17.724 14.811 29.497 29.497 29.497h303.96c17.724 0 29.497-14.749 29.497-29.497v-50.195c0-17.724-14.686-29.497-29.497-29.497h-303.96c-14.686 0-29.497 11.774-29.497 29.497z" />
<glyph unicode="&#xe91c;" glyph-name="user" d="M512.036 448.036c140.839 0 255.946 115.18 255.946 255.946s-115.036 256.018-255.946 256.018c-140.839 0-255.946-115.18-255.946-256.018s115.108-255.946 255.946-255.946zM512.036 320.028c-170.655 0-512.035-85.291-512.035-255.946v-128.080h1023.999v128.080c0 170.583-341.31 255.946-511.963 255.946z" />
<glyph unicode="&#xe91d;" glyph-name="settings" d="M996.798 526.583c-18.135 6.045-43.523 13.299-73.747 19.344-4.836 1.209-8.463 2.418-13.299 4.836-1.209 1.209-2.418 1.209-2.418 2.418-6.045 4.836-10.881 10.881-13.299 18.135-6.045 19.344-14.508 38.687-22.97 56.822-3.627 7.254-4.836 14.508-3.627 22.97 0 2.418 1.209 6.045 1.209 8.463 1.209 3.627 2.418 7.254 4.836 10.881 15.717 24.179 27.806 47.15 36.269 64.076 7.254 14.508 4.836 32.642-7.254 44.732l-59.24 59.24c-12.090 12.090-30.224 14.508-44.732 7.254-16.926-8.463-41.105-21.762-66.494-37.478-3.627-2.418-8.463-4.836-13.299-4.836-1.209 0-2.418 0-3.627-1.209-7.254-1.209-15.717 0-22.97 3.627-18.135 9.672-36.269 16.926-56.822 22.97-7.254 2.418-14.508 7.254-18.135 13.299-1.209 2.418-3.627 4.836-4.836 7.254-2.418 3.627-3.627 7.254-4.836 10.881-6.045 27.806-13.299 53.195-19.344 71.329-4.836 15.717-19.344 26.597-36.269 26.597h-84.628c-16.926 0-31.433-10.881-36.269-26.597-6.045-18.135-13.299-43.523-19.344-73.747-1.209-4.836-2.418-8.463-4.836-13.299-1.209-1.209-1.209-2.418-2.418-2.418-4.836-6.045-10.881-10.881-18.135-13.299-19.344-6.045-38.687-14.508-56.822-22.97-7.254-3.627-14.508-4.836-22.97-3.627-2.418 0-6.045 1.209-8.463 1.209-3.627 1.209-7.254 2.418-10.881 4.836-24.179 15.717-47.15 27.806-64.076 36.269-14.508 7.254-32.642 4.836-44.732-7.254l-59.24-59.24c-12.090-12.090-14.508-30.224-7.254-44.732 8.463-16.926 21.762-41.105 37.478-66.494 2.418-3.627 4.836-8.463 4.836-13.299 0-1.209 0-2.418 1.209-3.627 1.209-7.254 0-15.717-3.627-22.97-9.672-18.135-16.926-36.269-22.97-56.822-2.418-7.254-7.254-14.508-13.299-18.135-2.418-1.209-4.836-3.627-7.254-4.836-3.627-2.418-7.254-3.627-10.881-4.836-27.806-6.045-53.195-13.299-71.329-19.344-15.717-4.836-26.597-19.344-26.597-36.269v-84.628c0-16.926 10.881-31.433 26.597-36.269 18.135-6.045 43.523-13.299 73.747-19.344 4.836-1.209 8.463-2.418 13.299-4.836 1.209-1.209 2.418-1.209 2.418-2.418 6.045-4.836 10.881-10.881 13.299-18.135 6.045-19.344 14.508-38.687 22.97-56.822 3.627-7.254 4.836-14.508 3.627-22.97 0-2.418-1.209-6.045-1.209-8.463-1.209-3.627-2.418-7.254-4.836-10.881-15.717-24.179-27.806-47.15-36.269-64.076-7.254-14.508-4.836-32.642 7.254-44.732l59.24-59.24c12.090-12.090 30.224-14.508 44.732-7.254 16.926 8.463 41.105 21.762 66.494 37.478 3.627 2.418 8.463 4.836 13.299 4.836 1.209 0 2.418 0 3.627 1.209 7.254 1.209 15.717 0 22.97-3.627 18.135-9.672 36.269-16.926 56.822-22.97 7.254-2.418 14.508-7.254 18.135-13.299 1.209-2.418 3.627-4.836 4.836-7.254 2.418-3.627 3.627-7.254 4.836-10.881 6.045-27.806 13.299-53.195 19.344-71.329 4.836-15.717 19.344-26.597 36.269-26.597h84.628c16.926 0 31.433 10.881 36.269 26.597 6.045 18.135 13.299 43.523 19.344 73.747 1.209 4.836 2.418 8.463 4.836 13.299 1.209 1.209 1.209 2.418 2.418 2.418 4.836 6.045 10.881 10.881 18.135 13.299 19.344 6.045 38.687 14.508 56.822 22.97 7.254 3.627 14.508 4.836 22.97 3.627 2.418 0 6.045-1.209 8.463-1.209 3.627-1.209 7.254-2.418 10.881-4.836 24.179-15.717 47.15-27.806 64.076-36.269 14.508-7.254 32.642-4.836 44.732 7.254l59.24 59.24c12.090 12.090 14.508 30.224 7.254 44.732-8.463 16.926-21.762 41.105-37.478 66.494-2.418 3.627-4.836 8.463-4.836 13.299 0 1.209 0 2.418-1.209 3.627-1.209 7.254 0 15.717 3.627 22.97 9.672 18.135 16.926 36.269 22.97 56.822 2.418 7.254 7.254 14.508 13.299 18.135 2.418 1.209 4.836 3.627 7.254 4.836 3.627 2.418 7.254 3.627 10.881 4.836 27.806 6.045 53.195 13.299 71.329 19.344 15.717 4.836 26.597 19.344 26.597 36.269v84.628c0 16.926-10.881 31.433-26.597 36.269zM512 215.877c-128.151 0-232.123 103.972-232.123 232.123s103.972 232.123 232.123 232.123 232.123-103.972 232.123-232.123-103.972-232.123-232.123-232.123z" />
<glyph unicode="&#xe91e;" glyph-name="graph" d="M176.049 580.7h135.526v-468.699h-135.526v468.699zM447.105 783.998h135.429v-672h-135.429v672zM712.425 383.054h135.526v-271.052h-135.526v271.052z" />
<glyph unicode="zoom_out_map" glyph-name="zoom_out_map" d="M896 298.667v-256h-256l98 98-124 122 62 62 122-124zM384 42.667h-256v256l98-98 122 124 62-62-124-122zM128 554.667v256h256l-98-98 124-122-62-62-122 124zM640 810.667h256v-256l-98 98-122-124-62 62 124 122z" />
</font>
</defs>
</svg>
